<?xml version="1.0" encoding="iso-8859-1"?>
<!-- Generator: Adobe Illustrator 19.1.0, SVG Export Plug-In . SVG Version: 6.00 Build 0)  -->
<svg version="1.1" id="Capa_1" xmlns="http://www.w3.org/2000/svg" xmlns:xlink="http://www.w3.org/1999/xlink" x="0px" y="0px"
	 viewBox="0 0 31.059 31.059" style="enable-background:new 0 0 31.059 31.059;" xml:space="preserve">
<g>
	<g>
		<path style="fill:#010002;" d="M30.172,26.119H0.888C0.397,26.119,0,25.721,0,25.231V5.827C0,5.338,0.397,4.94,0.888,4.94h29.284
			c0.49,0,0.887,0.397,0.887,0.887v19.404C31.059,25.721,30.662,26.119,30.172,26.119z M1.775,24.344h27.509V6.716H1.775V24.344z"/>
	</g>
	<g>
		<path style="fill:#010002;" d="M15.529,16.417c-0.171,0-0.341-0.049-0.489-0.147L0.397,6.567
			c-0.408-0.271-0.521-0.821-0.249-1.229c0.271-0.409,0.821-0.521,1.23-0.25l14.151,9.378l14.152-9.378
			c0.407-0.271,0.959-0.159,1.229,0.25c0.271,0.408,0.159,0.959-0.249,1.229L16.02,16.269C15.871,16.368,15.7,16.417,15.529,16.417z
			"/>
	</g>
	<g>
		
			<path style="fill:#010002;stroke:#FFFFFF;stroke-width:1.7748;stroke-linecap:round;stroke-linejoin:round;stroke-miterlimit:10;" d="
			M0.888,25.231"/>
	</g>
</g>
<g>
</g>
<g>
</g>
<g>
</g>
<g>
</g>
<g>
</g>
<g>
</g>
<g>
</g>
<g>
</g>
<g>
</g>
<g>
</g>
<g>
</g>
<g>
</g>
<g>
</g>
<g>
</g>
<g>
</g>
</svg>
