<?xml version="1.0" encoding="utf-8"?>
<!-- Generator: Adobe Illustrator 19.0.0, SVG Export Plug-In . SVG Version: 6.00 Build 0)  -->
<svg version="1.1" id="Layer_1" xmlns="http://www.w3.org/2000/svg" xmlns:xlink="http://www.w3.org/1999/xlink" x="0px" y="0px"
	 viewBox="0 0 470 120" style="enable-background:new 0 0 470 120;" xml:space="preserve">
<style type="text/css">
	.st0{fill:#3E2F4F;}
	.st1{fill:none;}
	.st2{fill:#FB3C26;}
	.st3{fill:url(#XMLID_2_);}
</style>
<g id="XMLID_5_">
	<path id="XMLID_39_" class="st0" d="M0.2,27.3h46.9v11.4H12.8v17.4h32.5v11.4H12.8v19.2h36.1v11.4H0.2V27.3z"/>
	<path id="XMLID_37_" class="st0" d="M60.7,50.1h11.4v7.5h0.2c1.1-2.3,2.8-4.3,5.1-6c2.4-1.8,5.6-2.6,9.5-2.6c7.5,0,12.5,3,15,8.9
		c1.7-3.1,3.9-5.3,6.5-6.8c2.6-1.4,5.7-2.1,9.3-2.1c3.2,0,5.9,0.5,8.1,1.6c2.2,1.1,4,2.5,5.3,4.4c1.4,1.9,2.3,4,2.9,6.5
		s0.9,5.2,0.9,8.1v28.6h-12V70.9c0-1.5-0.1-2.9-0.4-4.2c-0.3-1.4-0.7-2.6-1.4-3.6c-0.7-1-1.6-1.8-2.7-2.4s-2.6-0.9-4.4-0.9
		c-1.9,0-3.5,0.3-4.7,1c-1.3,0.7-2.4,1.6-3.2,2.8c-0.8,1.2-1.4,2.5-1.8,4c-0.4,1.5-0.6,3-0.6,4.6v26h-12V69.5c0-3-0.6-5.4-1.9-7.2
		c-1.3-1.8-3.4-2.6-6.3-2.6c-2,0-3.7,0.3-5.1,1c-1.4,0.7-2.5,1.6-3.4,2.7c-0.9,1.1-1.5,2.4-1.9,3.9c-0.4,1.5-0.6,3-0.6,4.6v26.2h-12
		V50.1z"/>
	<path id="XMLID_34_" class="st0" d="M179.2,91.5h-0.3c-1.7,2.7-3.9,4.7-6.6,6c-2.7,1.2-5.6,1.8-8.8,1.8c-2.2,0-4.4-0.3-6.5-0.9
		c-2.1-0.6-4-1.5-5.6-2.7c-1.6-1.2-2.9-2.7-4-4.5c-1-1.8-1.5-3.9-1.5-6.3c0-2.6,0.5-4.8,1.4-6.7c0.9-1.8,2.2-3.4,3.8-4.6
		c1.6-1.2,3.4-2.2,5.4-3c2.1-0.7,4.2-1.3,6.5-1.6c2.2-0.4,4.5-0.6,6.8-0.7c2.3-0.1,4.4-0.2,6.4-0.2h3v-1.3c0-3-1-5.3-3.1-6.7
		c-2.1-1.5-4.7-2.3-7.9-2.3c-2.5,0-4.9,0.5-7.1,1.4c-2.2,0.9-4.1,2.1-5.7,3.6l-6.3-6.3c2.7-2.7,5.8-4.7,9.4-5.9
		c3.6-1.2,7.3-1.8,11-1.8c3.4,0,6.3,0.4,8.6,1.1c2.3,0.8,4.3,1.7,5.8,3c1.5,1.2,2.7,2.6,3.5,4.1c0.8,1.6,1.4,3.2,1.8,4.8
		c0.4,1.6,0.6,3.1,0.6,4.7c0.1,1.5,0.1,2.8,0.1,4v27.6h-10.8V91.5z M178.5,76.6H176c-1.7,0-3.5,0.1-5.6,0.2c-2.1,0.1-4,0.5-5.8,1
		c-1.8,0.5-3.4,1.2-4.7,2.2c-1.3,1-1.9,2.3-1.9,4c0,1.1,0.2,2.1,0.7,2.8c0.5,0.8,1.2,1.4,2,1.9c0.8,0.5,1.7,0.9,2.7,1.2
		c1,0.2,2,0.3,3,0.3c4.1,0,7.2-1,9.1-3c2-2,3-4.7,3-8.1V76.6z"/>
	<path id="XMLID_31_" class="st0" d="M202.4,33.8c0-1.9,0.7-3.6,2.2-5.1c1.4-1.4,3.3-2.2,5.5-2.2c2.2,0,4,0.7,5.6,2.1
		c1.5,1.4,2.2,3.1,2.2,5.1c0,2.1-0.8,3.8-2.2,5.1c-1.5,1.4-3.4,2.1-5.6,2.1c-2.2,0-4-0.7-5.5-2.2C203.1,37.4,202.4,35.7,202.4,33.8z
		 M210.1,50.1L210.1,50.1c3.3,0,6,2.7,6,6v42h-12v-42C204.1,52.8,206.8,50.1,210.1,50.1z"/>
	<path id="XMLID_28_" class="st0" d="M307.9,78.3c0.4,3.6,1.8,6.4,4.2,8.4c2.4,2,5.3,3,8.7,3c3,0,5.5-0.6,7.5-1.9
		c2-1.2,3.8-2.8,5.4-4.7l8.6,6.5c-2.8,3.5-5.9,5.9-9.4,7.4c-3.5,1.5-7.1,2.2-10.9,2.2c-3.6,0-7-0.6-10.2-1.8c-3.2-1.2-6-2.9-8.3-5.1
		c-2.3-2.2-4.2-4.9-5.6-8c-1.4-3.1-2.1-6.5-2.1-10.3c0-3.8,0.7-7.2,2.1-10.3c1.4-3.1,3.2-5.7,5.6-7.9c2.3-2.2,5.1-3.9,8.3-5.1
		c3.2-1.2,6.6-1.8,10.2-1.8c3.3,0,6.4,0.6,9.1,1.7c2.8,1.2,5.1,2.8,7.1,5c2,2.2,3.5,4.9,4.6,8.2c1.1,3.2,1.6,6.9,1.6,11.1v3.3H307.9
		z M332.5,69.3c-0.1-3.5-1.2-6.3-3.3-8.3c-2.1-2-5.1-3.1-8.9-3.1c-3.6,0-6.5,1-8.5,3.1c-2.1,2.1-3.4,4.8-3.9,8.3H332.5z"/>
	<path id="XMLID_26_" class="st0" d="M356.7,50.1h12v7.6h0.2c1.3-2.8,3.2-5,5.7-6.5c2.5-1.5,5.3-2.3,8.5-2.3c0.7,0,1.4,0.1,2.2,0.2
		c0.7,0.1,1.4,0.3,2.1,0.5v11.6c-1-0.3-2-0.5-2.9-0.7c-1-0.2-1.9-0.2-2.9-0.2c-2.8,0-5,0.5-6.7,1.5c-1.7,1-3,2.2-3.9,3.5
		c-0.9,1.3-1.5,2.7-1.8,4c-0.3,1.3-0.5,2.3-0.5,3v25.7h-12V50.1z"/>
	<path id="XMLID_23_" class="st0" d="M395.1,33.8c0-1.9,0.7-3.6,2.2-5.1c1.4-1.4,3.2-2.2,5.4-2.2c2.2,0,4,0.7,5.6,2.1
		c1.5,1.4,2.2,3.1,2.2,5.1c0,2.1-0.7,3.8-2.2,5.1c-1.5,1.4-3.3,2.1-5.6,2.1c-2.2,0-4-0.7-5.4-2.2C395.8,37.4,395.1,35.7,395.1,33.8z
		 M402.8,50.1L402.8,50.1c3.3,0,6,2.7,6,6v42h-12v-42C396.8,52.8,399.4,50.1,402.8,50.1z"/>
	<path id="XMLID_20_" class="st0" d="M433.2,78.3c0.4,3.6,1.8,6.4,4.2,8.4c2.4,2,5.3,3,8.7,3c3,0,5.5-0.6,7.5-1.9
		c2-1.2,3.8-2.8,5.4-4.7l8.6,6.5c-2.8,3.5-5.9,5.9-9.4,7.4c-3.5,1.5-7.1,2.2-10.9,2.2c-3.6,0-7-0.6-10.2-1.8c-3.2-1.2-6-2.9-8.3-5.1
		c-2.3-2.2-4.2-4.9-5.6-8c-1.4-3.1-2-6.5-2-10.3c0-3.8,0.7-7.2,2-10.3c1.4-3.1,3.2-5.7,5.6-7.9c2.3-2.2,5.1-3.9,8.3-5.1
		c3.2-1.2,6.6-1.8,10.2-1.8c3.3,0,6.4,0.6,9.1,1.7c2.8,1.2,5.1,2.8,7.1,5c2,2.2,3.5,4.9,4.6,8.2c1.1,3.2,1.7,6.9,1.7,11.1v3.3H433.2
		z M457.8,69.3c-0.1-3.5-1.2-6.3-3.3-8.3c-2.1-2-5.1-3.1-8.9-3.1c-3.6,0-6.4,1-8.5,3.1c-2.1,2.1-3.4,4.8-3.9,8.3H457.8z"/>
	<circle id="XMLID_19_" class="st1" cx="261.5" cy="73.8" r="4.6"/>
	<path id="XMLID_18_" class="st2" d="M259.6,0.3l-20.3,9.2c-4.5,2-7.4,6.5-7.4,11.4v86.8l12.6-5.7V29.3c0-4.9,2.9-9.4,7.4-11.4
		l7.7-3.5V0.3z"/>
	<linearGradient id="XMLID_2_" gradientUnits="userSpaceOnUse" x1="252.8676" y1="66.5837" x2="280.4828" y2="66.5837">
		<stop  offset="0" style="stop-color:#FB3C26"/>
		<stop  offset="1" style="stop-color:#FB5F00"/>
	</linearGradient>
	<path id="XMLID_17_" class="st3" d="M272.1,16.7l-11.9,5.4c-4.5,2-7.4,6.5-7.4,11.4v78.8v8l27.6-12.6V12.9L272.1,16.7z"/>
</g>
</svg>
