<?xml version="1.0" encoding="utf-8"?>
<!-- Generator: Adobe Illustrator 19.0.0, SVG Export Plug-In . SVG Version: 6.00 Build 0)  -->
<svg version="1.1" id="Layer_1" xmlns="http://www.w3.org/2000/svg" xmlns:xlink="http://www.w3.org/1999/xlink" x="0px" y="0px"
	 viewBox="-75 77 48 48" style="enable-background:new -75 77 48 48;" xml:space="preserve">
<style type="text/css">
	.st0{fill:#3D2E4F;}
	.st1{fill:#FFFFFF;}
</style>
<g id="Layer_1_1_">
</g>
<g id="Layer_2">
</g>
<g>
	<circle class="st0" cx="-55.5" cy="100.5" r="1.5"/>
	<rect x="-54" y="88" class="st0" width="6" height="1"/>
	<rect x="-50" y="91" class="st0" width="5" height="5"/>
	<rect x="-57" y="91" class="st0" width="5" height="5"/>
	<path class="st0" d="M-51,78c-8.8,0-18,7-18,17c0,12,18,30,18,30s18-18,18-30C-33,85-42.2,78-51,78z M-43,100.8
		c0,1.7-1.3,3.1-3,3.2l1,1v1h-12v-1l1-1c-1.7-0.1-3-1.5-3-3.2V89c0-1.7,1.3-3,3-3h10c1.7,0,3,1.3,3,3V100.8z"/>
	<circle class="st0" cx="-46.5" cy="100.5" r="1.5"/>
	<path class="st1" d="M-46,86h-10c-1.7,0-3,1.3-3,3v11.8c0,1.7,1.3,3.1,3,3.2l-1,1v1h12v-1l-1-1c1.7-0.1,3-1.5,3-3.2V89
		C-43,87.3-44.3,86-46,86z M-54,88h6v1h-6V88z M-55.5,102c-0.8,0-1.5-0.7-1.5-1.5s0.7-1.5,1.5-1.5s1.5,0.7,1.5,1.5
		S-54.7,102-55.5,102z M-52,96h-5v-5h5V96z M-46.5,102c-0.8,0-1.5-0.7-1.5-1.5s0.7-1.5,1.5-1.5s1.5,0.7,1.5,1.5S-45.7,102-46.5,102z
		 M-45,96h-5v-5h5V96z"/>
</g>
</svg>
