<?xml version="1.0" encoding="utf-8"?>
<!-- Generator: Adobe Illustrator 19.0.0, SVG Export Plug-In . SVG Version: 6.00 Build 0)  -->
<svg version="1.1" id="Layer_1" xmlns="http://www.w3.org/2000/svg" xmlns:xlink="http://www.w3.org/1999/xlink" x="0px" y="0px"
	 viewBox="-75 77 48 48" style="enable-background:new -75 77 48 48;" xml:space="preserve">
<style type="text/css">
	.st0{fill:#3D2E4F;}
	.st1{fill:#FFFFFF;}
</style>
<g id="Layer_1_1_">
</g>
<g id="Layer_2">
</g>
<g>
	<path class="st0" d="M-56.5,97c-0.8,0-1.5,0.7-1.5,1.5s0.7,1.5,1.5,1.5s1.5-0.7,1.5-1.5S-55.7,97-56.5,97z"/>
	<path class="st0" d="M-45.3,87.8c-0.8-0.4-2.2-0.9-5.7-0.9s-4.9,0.4-5.6,0.8c-0.5,0.2-0.7,0.6-0.8,1.1L-58,93h14l-0.5-4.1
		C-44.6,88.4-44.9,88-45.3,87.8z"/>
	<path class="st0" d="M-51,78c-8.8,0-18,7-18,17c0,12,18,30,18,30s18-18,18-30C-33,85-42.2,78-51,78z M-42,101c0,0.7-0.4,1.4-1,1.7
		v1.8c0,0.3-0.2,0.5-0.5,0.5h-3c-0.3,0-0.5-0.2-0.5-0.5V103h-8v1.5c0,0.3-0.2,0.5-0.5,0.5h-3c-0.3,0-0.5-0.2-0.5-0.5v-1.8
		c-0.6-0.3-1-1-1-1.7v-7l0.9-6c0.1-0.8,0.5-1.4,1.2-1.8c1.1-0.5,3.2-1.2,6.9-1.2s5.8,0.7,6.9,1.3c0.6,0.3,1.1,1,1.2,1.7l0.9,6V101z"
		/>
	<path class="st0" d="M-45.5,97c-0.8,0-1.5,0.7-1.5,1.5s0.7,1.5,1.5,1.5s1.5-0.7,1.5-1.5S-44.7,97-45.5,97z"/>
	<path class="st1" d="M-44.1,86.3c-1.1-0.6-3.2-1.3-6.9-1.3s-5.8,0.7-6.9,1.2c-0.7,0.4-1.1,1-1.2,1.8l-0.9,6v7c0,0.7,0.4,1.4,1,1.7
		v1.8c0,0.3,0.2,0.5,0.5,0.5h3c0.3,0,0.5-0.2,0.5-0.5V103h8v1.5c0,0.3,0.2,0.5,0.5,0.5h3c0.3,0,0.5-0.2,0.5-0.5v-1.8
		c0.6-0.3,1-1,1-1.7v-7l-0.9-6C-43,87.3-43.5,86.6-44.1,86.3z M-56.5,100c-0.8,0-1.5-0.7-1.5-1.5s0.7-1.5,1.5-1.5s1.5,0.7,1.5,1.5
		S-55.7,100-56.5,100z M-45.5,100c-0.8,0-1.5-0.7-1.5-1.5s0.7-1.5,1.5-1.5s1.5,0.7,1.5,1.5S-44.7,100-45.5,100z M-58,93l0.6-4.2
		c0.1-0.5,0.3-0.9,0.8-1.1c0.7-0.4,2.1-0.8,5.6-0.8s4.9,0.5,5.7,0.9c0.4,0.2,0.7,0.6,0.8,1.1L-44,93H-58z"/>
</g>
</svg>
