<?xml version="1.0" encoding="utf-8"?>
<!-- Generator: Adobe Illustrator 19.0.0, SVG Export Plug-In . SVG Version: 6.00 Build 0)  -->
<svg version="1.1" id="Layer_1" xmlns="http://www.w3.org/2000/svg" xmlns:xlink="http://www.w3.org/1999/xlink" x="0px" y="0px"
	 viewBox="-75 77 48 48" style="enable-background:new -75 77 48 48;" xml:space="preserve">
<style type="text/css">
	.st0{fill:#3D2E4F;}
	.st1{fill:#FFFFFF;}
</style>
<g id="Layer_1_1_">
</g>
<g id="Layer_2">
</g>
<g>
	<path class="st0" d="M-54.5,100.8c-0.9,0-1.6,0.7-1.6,1.6s0.7,1.6,1.6,1.6s1.6-0.7,1.6-1.6S-53.6,100.8-54.5,100.8z"/>
	<path class="st0" d="M-53,90.9h4c0.6,0,1-0.4,1-1s-1.4-1-2-1h-2c-0.6,0-2,0.4-2,1S-53.6,90.9-53,90.9z"/>
	<path class="st0" d="M-47.5,100.8c-0.9,0-1.6,0.7-1.6,1.6s0.7,1.6,1.6,1.6s1.6-0.7,1.6-1.6S-46.6,100.8-47.5,100.8z"/>
	<path class="st0" d="M-51,78c-8.8,0-18,7-18,17c0,12,18,30,18,30s18-18,18-30C-33,85-42.2,78-51,78z M-56.3,84.5
		c0-0.1,0.1-0.3,0.2-0.4c0.2-0.2,0.5-0.5,0.8-0.6c0.8-0.3,2-0.6,4.3-0.6s3.5,0.3,4.3,0.6c0.4,0.2,0.7,0.4,0.8,0.6
		c0.1,0.1,0.1,0.3,0.2,0.4s0.1,0.3,0.1,0.3c0,0.4-0.2,0.8-0.6,0.9c-0.5,0.2-1-0.1-1.1-0.6c0,0,0,0-0.1,0c0,0-0.1,0-0.2,0l-0.4,1.4
		c0,0.1,0,0.1,0,0.1c-0.1,0.2-0.4,0.3-0.7,0.2c-0.2-0.1-0.3-0.4-0.2-0.7l0.4-1.3c-0.6-0.1-1.4-0.2-2.4-0.2s-1.9,0.1-2.4,0.2l0.4,1.3
		c0,0,0,0.1,0,0.1c0,0.3-0.1,0.5-0.4,0.6c-0.3,0-0.5-0.1-0.6-0.4l-0.4-1.4c0,0-0.1,0-0.2,0c-0.1,0-0.1,0-0.1,0
		c-0.1,0.4-0.5,0.6-0.9,0.6c-0.5,0-0.9-0.5-0.8-1C-56.4,84.9-56.4,84.7-56.3,84.5z M-42.7,108.5c-0.3,0.4-1,0.5-1.4,0.2l-3-2.5
		c-0.1-0.1-0.2-0.2-0.3-0.3h-7.3c-0.1,0.1-0.1,0.2-0.3,0.3l-3,2.5c-0.4,0.3-1.1,0.3-1.4-0.2s-0.3-1.1,0.2-1.4l1.8-1.5
		c-1-0.5-1.7-1.5-1.7-2.7v-10c0-1.7,3-5,8-5s8,3.3,8,5v10c0,1.2-0.7,2.2-1.7,2.7l1.8,1.5C-42.4,107.4-42.4,108.1-42.7,108.5z"/>
	<path class="st0" d="M-50.5,91.9c-4,0-6.5,0.4-6.5,1v4c0,0.6,0.4,1,1,1h10c0.6,0,1-0.4,1-1v-4C-45,92.3-46.5,91.9-50.5,91.9z"/>
	<path class="st1" d="M-44.7,105.6c1-0.5,1.7-1.5,1.7-2.7v-10c0-1.7-3-5-8-5s-8,3.3-8,5v10c0,1.2,0.7,2.2,1.7,2.7l-1.8,1.5
		c-0.4,0.3-0.5,1-0.2,1.4s1,0.5,1.4,0.2l3-2.5c0.1-0.1,0.2-0.2,0.3-0.3h7.3c0.1,0.1,0.1,0.2,0.3,0.3l3,2.5c0.4,0.3,1.1,0.3,1.4-0.2
		s0.3-1.1-0.2-1.4L-44.7,105.6z M-52,88.9h2c0.6,0,2,0.4,2,1s-0.4,1-1,1h-4c-0.6,0-1-0.4-1-1S-52.6,88.9-52,88.9z M-54.5,104
		c-0.9,0-1.6-0.7-1.6-1.6s0.7-1.6,1.6-1.6s1.6,0.7,1.6,1.6S-53.6,104-54.5,104z M-47.5,104c-0.9,0-1.6-0.7-1.6-1.6s0.7-1.6,1.6-1.6
		s1.6,0.7,1.6,1.6S-46.6,104-47.5,104z M-45,96.9c0,0.6-0.4,1-1,1h-10c-0.6,0-1-0.4-1-1v-4c0-0.6,2.5-1,6.5-1s5.5,0.4,5.5,1V96.9z"
		/>
	<path class="st1" d="M-55.6,85.8c0.4,0,0.8-0.2,0.9-0.6c0,0,0,0,0.1,0c0,0,0.1,0,0.2,0l0.4,1.4c0,0.3,0.3,0.5,0.6,0.4
		c0.3,0,0.5-0.3,0.4-0.6c0-0.1,0-0.1,0-0.1l-0.4-1.3c0.6-0.1,1.4-0.2,2.4-0.2s1.9,0.1,2.4,0.2l-0.4,1.3c-0.1,0.2,0,0.5,0.2,0.7
		c0.2,0.1,0.5,0,0.7-0.2c0,0,0-0.1,0-0.1l0.4-1.4c0,0,0.1,0,0.2,0c0.1,0,0.1,0,0.1,0c0.2,0.5,0.7,0.7,1.1,0.6
		c0.4-0.1,0.6-0.5,0.6-0.9c0,0,0-0.2-0.1-0.3s-0.1-0.3-0.2-0.4c-0.2-0.2-0.5-0.5-0.8-0.6c-0.8-0.3-2-0.6-4.3-0.6s-3.5,0.3-4.3,0.6
		c-0.4,0.2-0.7,0.4-0.8,0.6c-0.1,0.1-0.1,0.3-0.2,0.4s-0.1,0.3-0.1,0.3C-56.4,85.4-56.1,85.8-55.6,85.8z"/>
</g>
</svg>
